<svg xmlns="http://www.w3.org/2000/svg" version="1.1" xmlns:xlink="http://www.w3.org/1999/xlink" width="512" height="512" x="0" y="0" viewBox="0 0 24 24" style="enable-background:new 0 0 512 512" xml:space="preserve" class=""><g><path fill="#c6c6c6" d="M7.5 3a.5.5 0 0 1 0 1h-2A1.5 1.5 0 0 0 4 5.5v2.031a.5.5 0 0 1-1 0V5.5A2.5 2.5 0 0 1 5.5 3zm9 1a.5.5 0 0 1 0-1h2A2.5 2.5 0 0 1 21 5.5v2a.5.5 0 0 1-1 0v-2A1.5 1.5 0 0 0 18.5 4zM20 16.5a.5.5 0 0 1 1 0v2a2.5 2.5 0 0 1-2.5 2.5h-2a.5.5 0 0 1 0-1h2a1.5 1.5 0 0 0 1.5-1.5zm-17 0a.5.5 0 0 1 1 0v2A1.5 1.5 0 0 0 5.5 20h2a.5.5 0 0 1 0 1h-2A2.5 2.5 0 0 1 3 18.5zm5-8a.5.5 0 0 1 1 0v1a.5.5 0 0 1-1 0zm8 0a.5.5 0 0 1 1 0v1a.5.5 0 0 1-1 0zm-4 0a.5.5 0 0 1 1 0v4a1.5 1.5 0 0 1-1.5 1.5.5.5 0 0 1 0-1 .5.5 0 0 0 .5-.5zm-3.9 7.3a.5.5 0 0 1 .8-.6c.911 1.215 1.935 1.8 3.1 1.8s2.189-.585 3.1-1.8a.5.5 0 0 1 .8.6C14.811 17.252 13.502 18 12 18s-2.811-.748-3.9-2.2z" opacity="1" data-original="#000000" class=""></path></g></svg>