<svg width="56" height="58" viewBox="0 0 56 58" fill="none" xmlns="http://www.w3.org/2000/svg">
<g clip-path="url(#clip0_22284_1532)">
<path d="M38.7166 0.976257C36.9463 0.976257 35.4166 4.75755 35.4166 10.5842C33.165 10.0514 30.7587 9.75917 28.1634 9.75917C25.568 9.75917 23.1618 10.0514 20.9102 10.5842C20.9102 4.75755 19.3633 0.976257 17.6101 0.976257C10.7523 0.976257 0.834961 30.2125 0.834961 35.7298C0.834961 41.247 11.8523 57.3175 28.1634 57.3175C44.4745 57.3175 55.4918 41.247 55.4918 35.7298C55.4918 30.2125 45.5917 0.976257 38.7166 0.976257ZM41.6557 29.1297L27.5962 43.1892C26.5477 44.2377 24.829 44.2377 23.7805 43.1892L14.6882 34.0969C14.0351 33.4438 14.0351 32.361 14.6882 31.7078L16.8023 29.5938C17.4555 28.9406 18.5383 28.9406 19.1914 29.5938L25.7055 36.1079L37.1869 24.6265C37.8401 23.9734 38.9229 23.9734 39.576 24.6265L41.6901 26.7406C42.3432 27.3937 42.3432 28.4766 41.6901 29.1297H41.6557Z" fill="#2F1708"/>
</g>
<defs>
<clipPath id="clip0_22284_1532">
<rect width="54.674" height="56.3412" fill="white" transform="translate(0.834961 0.976257)"/>
</clipPath>
</defs>
</svg>
